<svg width="55" height="64" viewBox="0 0 55 64" fill="none" xmlns="http://www.w3.org/2000/svg">
<path d="M53 62V2H2V62H53ZM53 62V3M10 2L10 62M2 13.2H10M2 42H10M2 27.6H10M2 56.4H10M45 3L45 62M45 13.98H53M45 42.3H53M45 28.14H53M45 56.46H53M39 51V40C39 37.2386 36.7614 35 34 35H21C18.2386 35 16 37.2386 16 40V51C16 53.7614 18.2386 56 21 56H34C36.7614 56 39 53.7614 39 51ZM39 24V13C39 10.2386 36.7614 8 34 8H21C18.2386 8 16 10.2386 16 13V24C16 26.7614 18.2386 29 21 29H34C36.7614 29 39 26.7614 39 24Z" stroke="#A90000" stroke-width="4" stroke-linecap="round"/>
</svg>
