<?xml version="1.0" encoding="UTF-8"?>
<svg id="Calque_2" data-name="Calque 2" xmlns="http://www.w3.org/2000/svg" viewBox="0 0 134 134">
  <defs>
    <style>
      .cls-1 {
        fill: #ffb23e;
      }

      .cls-2 {
        fill: #a90000;
      }

      .cls-3 {
        fill: #ff6262;
      }
    </style>
  </defs>
  <g id="Calque_3" data-name="Calque 3">
    <circle class="cls-1" cx="67" cy="67" r="67"/>
    <g>
      <path class="cls-3" d="m126,71.87v2.94c0,1.54-.73,2.74-2.2,3.62l-29.87,17.6c-.87.54-1.7.81-2.48.81-.96,0-1.83-.36-2.59-1.08s-1.15-1.64-1.15-2.76c0-1.44.57-2.5,1.71-3.16l27.89-16.53-27.89-16.42c-1.14-.73-1.71-1.81-1.71-3.26,0-1.12.38-2.03,1.15-2.76s1.63-1.09,2.59-1.09c.75,0,1.58.27,2.48.81l29.87,17.65c1.47.88,2.2,2.08,2.2,3.62Z"/>
      <path class="cls-3" d="m82.97,46.91l-19.87,57.23c-.32.87-.99,1.4-2.02,1.61-.97.2-1.95.05-2.92-.45-.97-.49-1.56-1.26-1.77-2.29-.18-.91-.08-1.95.3-3.1l19.9-57.18c.34-.9,1.04-1.47,2.09-1.68.94-.19,1.89-.05,2.86.41.96.47,1.55,1.21,1.76,2.25.2.97.09,2.04-.32,3.19Z"/>
      <path class="cls-3" d="m14,74.81v-2.93c0-1.5.77-2.71,2.31-3.61l29.86-17.67c.81-.54,1.62-.81,2.44-.81.96,0,1.83.38,2.59,1.13.77.76,1.15,1.67,1.15,2.76,0,1.42-.56,2.45-1.67,3.12l-27.92,16.53,27.94,16.43c1.1.72,1.65,1.79,1.65,3.21,0,1.08-.38,2-1.15,2.76-.77.76-1.63,1.13-2.59,1.13-.75,0-1.56-.27-2.44-.81l-29.87-17.61c-1.53-.84-2.3-2.04-2.3-3.61Z"/>
    </g>
    <path class="cls-2" d="m123,65.87v2.94c0,1.54-.73,2.74-2.2,3.62l-29.87,17.6c-.87.54-1.7.81-2.48.81-.96,0-1.83-.36-2.59-1.08s-1.15-1.64-1.15-2.76c0-1.44.57-2.5,1.71-3.16l27.89-16.53-27.89-16.42c-1.14-.73-1.71-1.81-1.71-3.26,0-1.12.38-2.03,1.15-2.76s1.63-1.09,2.59-1.09c.75,0,1.58.27,2.48.81l29.87,17.65c1.47.88,2.2,2.08,2.2,3.62Z"/>
    <path class="cls-2" d="m79.97,40.91l-19.87,57.23c-.32.87-.99,1.4-2.02,1.61-.97.2-1.95.05-2.92-.45-.97-.49-1.56-1.26-1.77-2.29-.18-.91-.08-1.95.3-3.1l19.9-57.18c.34-.9,1.04-1.47,2.09-1.68.94-.19,1.89-.05,2.86.41.96.47,1.55,1.21,1.76,2.25.2.97.09,2.04-.32,3.19Z"/>
    <path class="cls-2" d="m11,68.81v-2.93c0-1.5.77-2.71,2.31-3.61l29.86-17.67c.81-.54,1.62-.81,2.44-.81.96,0,1.83.38,2.59,1.13.77.76,1.15,1.67,1.15,2.76,0,1.42-.56,2.45-1.67,3.12l-27.92,16.53,27.94,16.43c1.1.72,1.65,1.79,1.65,3.21,0,1.08-.38,2-1.15,2.76-.77.76-1.63,1.13-2.59,1.13-.75,0-1.56-.27-2.44-.81l-29.87-17.61c-1.53-.84-2.3-2.04-2.3-3.61Z"/>
  </g>
</svg>