<svg width="86" height="60" viewBox="0 0 86 60" fill="none" xmlns="http://www.w3.org/2000/svg">
<path d="M0 17C0 7.61116 7.61116 0 17 0H69C78.3888 0 86 7.61116 86 17V43C86 52.3888 78.3888 60 69 60H17C7.61116 60 0 52.3888 0 43V17Z" fill="#FEFFDC"/>
<path d="M54.5 26.9019C58 29 58 30 54.5 32.0981L40.25 40.3253C35.75 43 35.75 43 35.75 37.7272V21.2728C35.75 16.5 35.75 16.5 40.25 18.6747L54.5 26.9019Z" fill="#A90000"/>
<path d="M41.25 16.9426L41.1864 16.9059L41.1202 16.8739L41.0249 16.8279C39.9817 16.3237 39.0628 15.8795 38.3349 15.6135C37.9549 15.4747 37.5114 15.3396 37.0505 15.2928C36.5768 15.2448 35.9372 15.2757 35.3125 15.6364C34.6745 16.0047 34.3246 16.5587 34.1342 17.0275C33.9541 17.471 33.8757 17.9352 33.8324 18.3281C33.7498 19.0764 33.7499 20.0639 33.75 21.1598L33.75 21.2728V37.7272L33.75 37.8363C33.7499 39.061 33.7499 40.133 33.8303 40.9337C33.872 41.3485 33.9462 41.8259 34.1152 42.2754C34.2887 42.737 34.6297 43.3444 35.3125 43.7386C35.9981 44.1345 36.6975 44.1246 37.1887 44.0398C37.6644 43.9577 38.1141 43.7781 38.4905 43.6033C39.2169 43.2661 40.1333 42.7214 41.177 42.1009L41.2609 42.0511L55.5 33.8301L55.5142 33.8219L55.5283 33.8135C56.4326 33.2714 57.2494 32.7213 57.8565 32.1363C58.445 31.5692 59.125 30.6921 59.125 29.5C59.125 28.3079 58.445 27.4308 57.8565 26.8637C57.2494 26.2787 56.4326 25.7286 55.5283 25.1865L55.5142 25.1781L55.5 25.1699L41.25 16.9426ZM39.25 38.5933L39.239 38.5996L39.2281 38.6061C38.6375 38.9571 38.1569 39.242 37.7592 39.4689C37.7507 39.0021 37.75 38.4311 37.75 37.7272V21.2728C37.75 20.6321 37.7508 20.1198 37.7591 19.7053C38.1699 19.8921 38.676 20.1354 39.3137 20.4435L53.4855 28.6256C54.0853 28.9857 54.5078 29.2721 54.7972 29.5C54.5078 29.7279 54.0853 30.0143 53.4855 30.3744L39.25 38.5933ZM55.2208 29.8983C55.2206 29.8983 55.2179 29.8947 55.2136 29.8876C55.219 29.8948 55.2211 29.8983 55.2208 29.8983ZM55.2136 29.1124C55.2179 29.1053 55.2206 29.1017 55.2208 29.1017C55.2211 29.1017 55.2189 29.1052 55.2136 29.1124ZM17 2H69C77.2843 2 84 8.71573 84 17V43C84 51.2843 77.2843 58 69 58H17C8.71573 58 2 51.2843 2 43V17C2 8.71573 8.71573 2 17 2Z" stroke="#A90000" stroke-width="4"/>
</svg>
